# xmcd
#
# Track frame offsets: 
#        150
#        21431
#        46462
#        73123
#        91975
#        119678
#        139055
#        157588
#        184614
#        202269
#
# Disc length: 3100 seconds
#
# Revision: 0
# Processed by: cddbd v1.5.2PL0 Copyright (c) Steve Scherf et al.
# Submitted via: ExactAudioCopy v1.0b4
#
DISCID=8e0c1a0a
DTITLE=Brandon Miller Band - Slow Train
DYEAR=2014
DGENRE=Blues
TTITLE0=Slow Train
TTITLE1=Hero's Mistake
TTITLE2=Dark Heart Of Mine
TTITLE3=Can't Get Enough
TTITLE4=Breakin' In
TTITLE5=Forevermore
TTITLE6=End Of The Road
TTITLE7=Night After Night
TTITLE8=Out Of Time
TTITLE9=Cold Hearted
EXTD=
EXTT0=
EXTT1=
EXTT2=
EXTT3=
EXTT4=
EXTT5=
EXTT6=
EXTT7=
EXTT8=
EXTT9=
PLAYORDER=
